<?xml version="1.0" encoding="utf-8"?>
<!-- Generator: Adobe Illustrator 22.0.1, SVG Export Plug-In . SVG Version: 6.00 Build 0)  -->
<svg version="1.1" id="Calque_1" xmlns="http://www.w3.org/2000/svg" xmlns:xlink="http://www.w3.org/1999/xlink" x="0px" y="0px"
	 viewBox="0 240 432 120" style="enable-background:new 0 0 432 432;" xml:space="preserve">
<style type="text/css">
</style>
<g>
	<g>
		<path class="st72" d="M179.6,299.9c1.8,2.7,2.9,5.6,3.6,8.7c1,4.2,1.1,8.5,0.7,12.8c-1,8.8-3.6,17.2-7.1,25.3
			c-1,2.3-2.2,4.4-3.6,6.5c-0.9,1.3-2,2.4-3.4,3.2c-2,1.2-4,1.3-6.2,0.6c-2.8-0.9-5.5-2-8-3.7c-8.6-6-15.4-13.6-20.4-22.9
			c-1.4-2.6-2.4-5.4-2.9-8.4c-0.6-3.8-0.2-7.5,2.1-10.8c2.1-3.1,5-4.7,8.6-5.4c5.4-1,10.6-0.3,15.5,2.3c0.2,0.1,0.4,0.2,0.6,0.3
			c0,0,0.1,0,0.2,0c4-4.4,8.4-8.3,13.3-11.9c-0.3-0.2-0.5-0.4-0.7-0.6c-1.7-1.2-3.4-2.3-5.3-3.2c-5-2.2-10.1-2.6-15.4-1.3
			c-5.5,1.3-10.5,3.7-14.8,7.4c-3.2,2.8-6.2,5.9-8.8,9.3c-4.3,5.7-8.7,11.5-13.1,17.1c-2.9,3.7-5.9,7.4-9.5,10.5
			c-1.3,1.2-2.7,2.3-4.1,3.4c-4.8,3.7-10.2,5.6-16.2,6.2c-3.3,0.3-6.6,0.2-9.8-1c-7.6-2.8-12.6-8-14.1-16.2c-0.4-2.4-0.2-4.9,0-7.3
			c0-0.1,0-0.2,0.1-0.3c0.2-0.7,0.7-1.1,1.3-1.1c0.6,0,1.1,0.4,1.3,1c0.1,0.4,0.2,0.9,0.2,1.3c0,1.5-0.1,2.9,0,4.4
			c0.3,7.2,5.7,14.1,13.8,15.4c4,0.6,7.7-0.2,11.3-1.7c3.8-1.6,7.1-3.9,10-6.7c3.1-3,5.9-6.3,8.5-9.7c2.3-3,4.5-6.1,6.7-9.2
			c3.5-4.9,7-9.7,10.9-14.3c0.5-0.5,0.9-1.1,1.3-1.7c4.5-5.4,10.3-8.7,17.1-10.3c8.1-1.9,16.1-1.2,23.8,1.9c2.6,1.1,5,2.6,7.2,4.3
			c0.3,0.2,0.6,0.5,0.9,0.7c0.3-0.2,0.7-0.3,1-0.5c4.9-2.7,10-4.5,15.5-5.3c3.6-0.5,7.3-0.6,11-0.3c5,0.4,9.8,1.4,14.4,3.3
			c3.7,1.5,7.2,3.5,10.4,5.9c2.6,2,4.8,4.3,6.5,7c1.6,2.6,2.6,5.4,2.6,8.5c0,6.4-3.6,11.8-9.6,14.1c-2.9,1.1-6,1.4-9,0.7
			c-1.5-0.4-2.9-1-4-2.1c-0.8-0.7-1.3-1.5-1.5-2.6c-0.1-0.5-0.2-1,0.3-1.3c0.5-0.3,0.8,0.2,1.1,0.5c0.1,0.1,0.2,0.2,0.3,0.3
			c1.1,1.7,2.8,2.5,4.7,2.8c5,0.7,9.3-0.6,12.5-4.7c2.9-3.6,3.2-7.7,1.6-11.9c-1.3-3.4-3.6-6.2-6.7-8.2c-1.2-0.8-2.4-1.6-3.7-2.3
			c-3.4-2.1-7.2-3.1-11.1-3.8c-3.4-0.6-6.8-1-10.2-1.3c-1.7-0.1-3.4,0.1-5.1,0.4c-5.3,0.8-10.4,2.3-15.3,4.8
			C180.5,299.3,180.1,299.6,179.6,299.9z M157.3,311.1c-0.1,0-0.1-0.1-0.2-0.2c-3-1.6-6.1-2.3-9.5-2.3c-1.5,0-2.6,0.9-3.4,2.1
			c-0.3,0.5-0.5,1-0.7,1.5c-0.8,2.3-1,4.7-0.4,7.1c0.5,1.8,1,3.7,1.7,5.5c2.2,5.9,5.4,11.2,9.2,16.2c3,3.9,6.5,7.3,10.4,10.2
			c1.1,0.8,2.3,1.5,3.6,1.8c1,0.3,1.8,0.1,2.4-0.8c1.5-2.2,2.8-4.4,3.8-6.9c2.4-6.1,4.6-12.2,5.8-18.7c0.8-4.7,1.4-9.3,0.8-14.1
			c-0.5-3.4-1.4-6.7-3.1-9.8c-0.2-0.4-0.5-0.7-0.8-1.2c-4.8,3.3-9.5,6.4-13,11.1c1.4,1.7,2.6,3.5,3.3,5.5c1.8,5.1-0.5,9.5-3.7,11.9
			c-2.6,2-6.1,1.5-8.2-1.1c-1-1.2-1.4-2.6-1.6-4.1c-0.2-2.6,0.2-5.2,1.1-7.6C155.6,315.1,156.5,313.2,157.3,311.1z M161.4,327.8
			c3.9-2.7,4.7-8.5,0.8-12.4c-0.7,1.7-1.7,5.6-1.8,7.4c-0.1,1.1-0.1,2.2,0,3.3C160.4,326.8,160.7,327.4,161.4,327.8z"/>
		<path class="st72" d="M257.5,337.7c-1.8-2.7-2.9-5.6-3.6-8.7c-1-4.2-1.1-8.5-0.7-12.8c1-8.8,3.6-17.2,7.1-25.3
			c1-2.3,2.2-4.4,3.6-6.5c0.9-1.3,2-2.4,3.4-3.2c2-1.2,4-1.3,6.2-0.6c2.8,0.9,5.5,2,8,3.7c8.6,6,15.4,13.6,20.4,22.9
			c1.4,2.6,2.4,5.4,2.9,8.4c0.6,3.8,0.2,7.5-2.1,10.8c-2.1,3.1-5,4.7-8.6,5.4c-5.4,1-10.6,0.3-15.5-2.3c-0.2-0.1-0.4-0.2-0.6-0.3
			c0,0-0.1,0-0.2,0c-4,4.4-8.4,8.3-13.3,11.9c0.3,0.2,0.5,0.4,0.7,0.6c1.7,1.2,3.4,2.3,5.3,3.2c5,2.2,10.1,2.6,15.4,1.3
			c5.5-1.3,10.5-3.7,14.8-7.4c3.2-2.8,6.2-5.9,8.8-9.3c4.3-5.7,8.7-11.5,13.1-17.1c2.9-3.7,5.9-7.4,9.5-10.5
			c1.3-1.2,2.7-2.3,4.1-3.4c4.8-3.7,10.2-5.6,16.2-6.2c3.3-0.3,6.6-0.2,9.8,1c7.6,2.8,12.6,8,14.1,16.2c0.4,2.4,0.2,4.9,0,7.3
			c0,0.1,0,0.2-0.1,0.3c-0.2,0.7-0.7,1.1-1.3,1.1c-0.6,0-1.1-0.4-1.3-1c-0.1-0.4-0.2-0.9-0.2-1.3c0-1.5,0.1-2.9,0-4.4
			c-0.3-7.2-5.7-14.1-13.8-15.4c-4-0.6-7.7,0.2-11.3,1.7c-3.8,1.6-7.1,3.9-10,6.7c-3.1,3-5.9,6.3-8.5,9.7c-2.3,3-4.5,6.1-6.7,9.2
			c-3.5,4.9-7,9.7-10.9,14.3c-0.5,0.5-0.9,1.1-1.3,1.7c-4.5,5.4-10.3,8.7-17.1,10.3c-8.1,1.9-16.1,1.2-23.8-1.9
			c-2.6-1.1-5-2.6-7.2-4.3c-0.3-0.2-0.6-0.5-0.9-0.7c-0.3,0.2-0.7,0.3-1,0.5c-4.9,2.7-10,4.5-15.5,5.3c-3.6,0.5-7.3,0.6-11,0.3
			c-5-0.4-9.8-1.4-14.4-3.3c-3.7-1.5-7.2-3.5-10.4-5.9c-2.6-2-4.8-4.3-6.5-7c-1.6-2.6-2.6-5.4-2.6-8.5c0-6.4,3.6-11.8,9.6-14.1
			c2.9-1.1,6-1.4,9-0.7c1.5,0.4,2.9,1,4,2.1c0.8,0.7,1.3,1.5,1.5,2.6c0.1,0.5,0.2,1-0.3,1.3c-0.5,0.3-0.8-0.2-1.1-0.5
			c-0.1-0.1-0.2-0.2-0.3-0.3c-1.1-1.7-2.8-2.5-4.7-2.8c-5-0.7-9.3,0.6-12.5,4.7c-2.9,3.6-3.2,7.7-1.6,11.9c1.3,3.4,3.6,6.2,6.7,8.2
			c1.2,0.8,2.4,1.6,3.7,2.3c3.4,2.1,7.2,3.1,11.1,3.8c3.4,0.6,6.8,1,10.2,1.3c1.7,0.1,3.4-0.1,5.1-0.4c5.3-0.8,10.4-2.3,15.3-4.8
			C256.7,338.4,257.1,338,257.5,337.7z M279.8,326.6c0.1,0,0.1,0.1,0.2,0.2c3,1.6,6.1,2.3,9.5,2.3c1.5,0,2.6-0.9,3.4-2.1
			c0.3-0.5,0.5-1,0.7-1.5c0.8-2.3,1-4.7,0.4-7.1c-0.5-1.8-1-3.7-1.7-5.5c-2.2-5.9-5.4-11.2-9.2-16.2c-3-3.9-6.5-7.3-10.4-10.2
			c-1.1-0.8-2.3-1.5-3.6-1.8c-1-0.3-1.8-0.1-2.4,0.8c-1.5,2.2-2.8,4.4-3.8,6.9c-2.4,6.1-4.6,12.2-5.8,18.7
			c-0.8,4.7-1.4,9.3-0.8,14.1c0.5,3.4,1.4,6.7,3.1,9.8c0.2,0.4,0.5,0.7,0.8,1.2c4.8-3.3,9.5-6.4,13-11.1c-1.4-1.7-2.6-3.5-3.3-5.5
			c-1.8-5.1,0.5-9.5,3.7-11.9c2.6-2,6.1-1.5,8.2,1.1c1,1.2,1.4,2.6,1.6,4.1c0.2,2.6-0.2,5.2-1.1,7.6
			C281.5,322.6,280.6,324.5,279.8,326.6z M275.7,309.9c-3.9,2.7-4.7,8.5-0.8,12.4c0.7-1.7,1.7-5.6,1.8-7.4c0.1-1.1,0.1-2.2,0-3.3
			C276.7,310.9,276.4,310.2,275.7,309.9z"/>
	</g>
</g>
</svg>
