<?xml version="1.0" encoding="utf-8"?>
<!-- Generator: Adobe Illustrator 22.0.1, SVG Export Plug-In . SVG Version: 6.00 Build 0)  -->
<svg version="1.1" id="Calque_1" xmlns="http://www.w3.org/2000/svg" xmlns:xlink="http://www.w3.org/1999/xlink" x="0px" y="0px"
	 viewBox="0 0 432 432" style="enable-background:new 0 0 432 432;" xml:space="preserve">

<g>
<g>
		<path class="st41" d="M252.3,71.1c0.3-1,0.5-2,0.8-2.9c0.2-0.7,0.4-1.4,0.7-2.1c0.4-1,1-1.3,1.7-1.1c0.7,0.2,1.1,1,1,1.9
			c-0.2,1.1-0.5,2.2-0.8,3.3c-0.1,0.3-0.1,0.6-0.3,1.1c0.6,0,1.2,0,1.7,0c15.4,0,30.8,0.1,46.2,0.1c10.3,0,20.5,0.1,30.8,0.1
			c4,0,8.1-0.1,12.1-0.2c1.9,0,3.8,0,5.7,0.4c1.7,0.3,2.5,1.4,2.4,3c0,2.7,0.1,5.3,0.1,8c0.1,4.8,0.2,9.5,0.3,14.3
			c0.1,6.3,0.2,12.6,0.4,18.9c0.1,6.2,0.2,12.4,0.3,18.6c0.1,6.8,0.2,13.7,0.4,20.5c0.1,3.2,0.1,6.4,0.2,9.6c0,0.3,0,0.7,0,1.2
			c0.4-0.2,0.7-0.3,0.9-0.5c0.9-0.5,1.7-1,2.6-1.4c0.2-0.1,0.5-0.2,0.8-0.2c0.4,0,0.8,0.2,1,0.6c0.2,0.5,0.1,0.9-0.2,1.2
			c-0.5,0.4-1,0.8-1.5,1.1c-1.2,0.7-2.3,1.4-3.6,2.2c0,0.5,0,0.9,0,1.4c0,3.6,0.1,7.3,0,10.9c-0.1,2.1-0.2,4.3-0.6,6.3
			c-0.5,3-2.1,5.2-5.2,6c-2.2,0.6-4.3-0.5-5.2-2.6c-0.5-1.2-0.6-2.5-0.4-3.8c0-0.2,0.1-0.5,0.1-0.8c-0.4,0.2-0.6,0.4-0.9,0.5
			c-1,0.4-1.9,1-2.9,1.2c-4,0.9-6.8-2.6-5.7-6.3c0.2-0.8,0.7-1.6,1.2-2.4c0.9-1.4,2.2-2.5,3.5-3.4c2.3-1.6,4.7-3.1,7.1-4.6
			c1.7-1.1,3.5-2.1,5.2-3.1c0.5-0.3,0.7-0.6,0.7-1.2c-0.1-5.2-0.2-10.4-0.3-15.6c0-1.8-0.1-3.6-0.1-5.5c-0.1-5.2-0.1-10.4-0.2-15.5
			c-0.1-6-0.2-12.1-0.4-18.1c-0.1-5.3-0.2-10.6-0.3-15.8c-0.1-6.6-0.1-13.2-0.2-19.9c0-0.6-0.1-1.3-0.2-2c-0.6-0.1-1.2-0.1-1.8-0.1
			c-12.9,0.3-25.7,0.3-38.6,0.2c-16.5-0.1-32.9-0.1-49.4-0.2c-2,0-3.9,0-5.9-0.1c-0.3,0-0.7,0-1.1,0c-0.2,0.7-0.4,1.4-0.7,2
			c-1.6,3.9-3.2,7.8-5.3,11.5c-0.9,1.6-2,3.1-3.4,4.3c-1.4,1.2-2.9,2.1-4.8,2.1c-4.3,0-7.1-4-5.6-8.1c0.2-0.5,0.4-1,0.7-1.6
			c-0.6,0-1.1,0-1.7,0c-1.4,0-2.6-0.4-3.8-1.1c-1.8-1-2.6-2.6-1.8-5c0.6-1.8,1.9-3,3.6-3.8c2.7-1.3,5.5-2.1,8.4-2.7
			c3.9-0.7,7.8-1,11.7-0.8C252,71.1,252.1,71.1,252.3,71.1z M251.6,74.3c-0.5,0-0.8,0-1.2,0c-3.4-0.1-6.8,0.3-10.1,0.8
			c-1.8,0.3-3.6,0.7-5.4,1.2c-1.4,0.4-2.7,1.1-3.6,2.2c-1.1,1.3-0.8,2.5,0.8,3c1.5,0.6,3.1,0.6,4.6,0.1c0.8-0.3,1.7-0.6,2.5-0.9
			c0.5-0.2,0.9-0.3,1.4-0.5c0.6-0.2,1.2,0.1,1.5,0.6c0.3,0.5,0.2,1.1-0.3,1.6c-0.2,0.2-0.5,0.4-0.8,0.6c-0.7,0.6-1.5,1.1-2.2,1.7
			c-0.8,0.7-1.4,1.6-1.7,2.6c-0.6,2.5,1.2,4.5,3.7,4.1c0.9-0.2,1.7-0.6,2.3-1.3c0.8-0.8,1.6-1.7,2.2-2.7
			C247.8,83.4,249.6,79,251.6,74.3z M352.7,170.7c-0.4,0.2-0.7,0.4-1,0.5c-1.9,1.2-3.9,2.3-5.8,3.5c-1.7,1.1-3.4,2.2-5.1,3.3
			c-1.1,0.7-2,1.7-2.7,2.8c-0.3,0.5-0.6,1-0.7,1.6c-0.4,1.7,0.9,3,2.6,2.9c1.1-0.1,2-0.6,2.8-1.2c1.5-1,2.7-2.3,3.9-3.7
			c0.3-0.3,0.6-0.7,0.9-1c0.4-0.4,1-0.4,1.4-0.1c0.4,0.3,0.6,0.8,0.4,1.3c-0.1,0.4-0.3,0.8-0.5,1.2c-0.8,1.7-1.4,3.4-1.6,5.3
			c-0.1,0.9,0,1.7,0.4,2.5c0.3,0.7,0.8,1,1.6,0.9c1.3-0.2,2.2-0.8,2.6-2c0.6-1.5,1.1-3.1,1.1-4.8c0-1.7,0-3.4,0-5.1
			C352.9,176.1,352.8,173.5,352.7,170.7z"/>
		<path class="st41" d="M336.1,89.3c-1.1,0.2-2.2,0.3-3.3,0.5c-0.2,0-0.4,0-0.6,0c-3.2-0.3-4.8-3-3.4-5.9c0.5-1,1.2-1.8,2.1-2.5
			c2.3-1.8,4.9-2.9,7.7-3.5c2.4-0.5,4.7-0.7,7.1-0.6c1.7,0.1,2.4,0.6,2.6,2.3c0.1,1.1,0.1,2.2-0.1,3.3c-0.4,2-0.8,4.1-1.4,6.1
			c-0.4,1.4-1.1,2.6-1.9,3.9c-1,1.5-2.3,2.6-4.2,2.9c-2.7,0.5-4.9-1.2-4.8-4C335.8,90.9,336,90.1,336.1,89.3z M345.7,80
			c-3.8-0.2-8.6,0.6-11.7,2.4c-0.7,0.4-1.4,0.9-2,1.4c-0.4,0.4-0.7,0.9-1,1.4c-0.4,0.9-0.1,1.5,0.9,1.8c0.4,0.1,1,0.2,1.4,0.2
			c0.9-0.2,1.9-0.4,2.8-0.7c1-0.4,1.9-1.1,2.9-1.6c0.3-0.2,0.6-0.3,0.9-0.4c0.4-0.1,0.8,0.1,1.1,0.4c0.2,0.3,0.3,0.7,0.1,1.1
			c-0.1,0.2-0.3,0.5-0.5,0.7c-0.4,0.5-0.8,0.9-1.2,1.4c-0.7,0.9-1.1,1.9-1.2,3c-0.1,0.7,0,1.3,0.6,1.7c0.5,0.4,1.6,0.3,2.1-0.1
			c0.4-0.3,0.8-0.7,1.1-1.2c1.6-2.8,3-5.6,3.4-8.9C345.6,81.9,345.6,81,345.7,80z"/>
	</g>
</g>
</svg>
