<?xml version="1.0" encoding="utf-8"?>
<!-- Generator: Adobe Illustrator 22.0.1, SVG Export Plug-In . SVG Version: 6.00 Build 0)  -->
<svg version="1.1" id="Calque_1" xmlns="http://www.w3.org/2000/svg" xmlns:xlink="http://www.w3.org/1999/xlink" x="0px" y="0px"
	 viewBox="0 0 432 432" style="enable-background:new 0 0 432 432;" xml:space="preserve">

<g>
	<g>
		<path class="st56" d="M322.7,357.5c-1.7,0.4-3.1,0.8-4.6,1.1c-7.5,1.3-14.6,0.6-21.3-3.2c-2.1-1.2-4-2.6-5.3-4.6
			c-0.5-0.8-1-1.7-1.3-2.6c-0.6-2,0-3.7,1.3-5.3c1.8-2.2,5.2-2.9,7.5-1.6c1.8,1,2.7,3,2.1,4.9c-0.2,0.6-0.6,1.1-1,1.6
			c-0.3,0.3-0.7,0.5-1.1,0.2c-0.4-0.3-0.2-0.7-0.1-1c0.2-0.5,0.5-1.1,0.5-1.6c0.1-1.4-0.9-2.3-2.3-2.2c-1.2,0.1-2.2,0.4-3.1,1.2
			c-1.4,1.1-1.7,2.8-0.7,4.3c0.8,1.4,2,2.4,3.3,3.3c3.4,2.4,7.3,3.8,11.4,4.3c4.7,0.6,9.2,0.2,13.7-1.1c0.2-0.1,0.5-0.1,0.7-0.2
			c0,0,0.1-0.1,0.1-0.1c-1-0.2-2.1-0.3-3.1-0.6c-2.7-0.7-5.1-2-7-4.1c-1.4-1.6-2.4-3.4-2.7-5.6c-0.5-3.9,2.3-8.1,5.9-8.9
			c0.7-0.1,1.5-0.1,2.2,0c0.5,0,1,0.2,1.7,0.3c-0.1-0.6-0.1-1.1-0.1-1.6c-0.1-4.3,2-7.7,6.2-8.8c2.2-0.6,4.4-0.3,6.5,0.6
			c4.2,1.8,6.7,5.1,7.5,9.5c0.3,1.6,0.2,3.3,0.3,4.9c0.1-0.1,0.3-0.3,0.4-0.5c2.9-4.3,4.9-9,5.3-14.3c0.4-6-1.4-11.3-5-16
			c-1.1-1.5-2.5-2.5-4.3-3c-1.1-0.3-2.1-0.3-3.1,0.3c-1.8,1-2.1,3.4-0.7,4.9c0.7,0.7,1.3,0.8,2,0.1c0.2-0.2,0.4-0.4,0.6-0.6
			c0.4-0.4,0.9-0.5,1.3-0.2c0.4,0.3,0.5,0.7,0.4,1.3c-0.7,2.2-3.4,3.2-5.3,1.9c-2.6-1.7-3.8-6.4-0.2-9c1.6-1.2,3.4-1.4,5.4-1
			c1.9,0.4,3.4,1.4,4.8,2.7c1.8,1.7,3.1,3.8,4.1,6c1.9,3.9,2.9,7.9,2.8,12.2c-0.1,2.8-0.5,5.5-1.4,8.2c-0.1,0.3-0.2,0.7-0.2,1.1
			c0.2-0.5,0.5-0.9,0.7-1.4c1.7-4.1,2.9-8.3,3.7-12.6c0.7-3.9,1.2-7.9,1.3-11.8c0.1-2.6,0.2-5.1,0.1-7.7c-0.2-6.3-1-12.5-3-18.5
			c-1.8-5.4-4.7-10.2-8.6-14.3c-3.4-3.6-7.4-6.4-12.1-8.2c-2.3-0.9-4.8-1.3-7.3-0.9c-3.1,0.5-5.5,2.5-6.1,5.6c-0.5,2.6-0.1,5,1.8,7
			c1.6,1.7,4.1,2.1,5.9,1c0.7-0.5,1.3-1,1.3-2c0-0.2,0.1-0.4,0.1-0.6c0.1-0.4,0.4-0.7,0.9-0.7c0.5,0,0.7,0.3,0.9,0.7
			c0.4,1.4,0.1,2.6-0.8,3.7c-1,1.2-2.3,2-3.8,2.3c-2.7,0.5-5-0.4-6.9-2.4c-2-2.2-2.7-4.8-2.7-7.8c0.1-4.9,3.7-9.5,10.1-9.8
			c2.8-0.1,5.5,0.5,8,1.5c5.3,2.1,9.8,5.5,13.6,9.7c4.8,5.4,7.8,11.7,9.5,18.7c0.9,3.6,1.5,7.2,1.7,10.9c0.1,2.6,0.3,5.1,0.3,7.7
			c-0.1,7.4-0.7,14.7-2.6,21.8c-0.7,2.7-1.7,5.4-2.7,8.1c-1.6,4.1-4.3,7.5-7.6,10.3c-1.7,1.4-3.5,2.7-5.3,4.1
			c-0.3,0.2-0.6,0.5-0.8,0.8c-2.8,4.3-6.6,7.6-11.1,10.1c-5.9,3.4-12.3,5.7-19.1,6.8c-4.2,0.7-8.4,1.1-12.6,1
			c-12.4-0.3-24.2-3-35.3-8.8c-3.4-1.8-6.6-4-9.4-6.8c-2.5-2.5-4.4-5.4-5.3-8.9c-2-8.4,3.7-14.3,10.3-15.4c2-0.3,4.1-0.2,6,0.5
			c2.7,1,4.6,2.8,5.2,5.7c0.3,1.4-0.1,2.7-0.8,3.8c-0.3,0.4-0.9,0.7-1.4,1c-0.4,0.2-0.8,0-1.1-0.3c-0.2-0.4-0.2-0.9,0.2-1.1
			c0.8-0.5,1.1-1.2,1.2-2.1c0-1.1-0.4-2-1.1-2.8c-1.1-1.2-2.6-1.8-4.2-2c-2.4-0.3-4.8,0-7,1.2c-4,2.2-5.8,6.5-4.7,10.9
			c0.5,2.1,1.5,4,2.8,5.7c2,2.6,4.5,4.7,7.3,6.4c4.7,3,9.8,5.1,15.1,6.8c5.8,1.8,11.8,2.9,17.9,3.3c7.6,0.5,15.1-0.1,22.4-2.1
			c3.5-1,6.8-2.4,10-4C322.1,357.9,322.3,357.8,322.7,357.5z M336.9,338.7c-0.1-0.8-0.1-1.6-0.3-2.3c-0.6-3.4-3.2-7.4-8.2-8
			c-2-0.2-3.8,0.2-5.1,1.7c-1.5,1.7-1.8,5.5-0.6,7.5c0.2,0.3,0.4,0.5,0.6,0.7c0.2,0.2,0.4,0.5,0.5,0.8c0.2,0.4,0.2,0.8-0.2,1.1
			c-0.4,0.3-0.7,0.1-1-0.1c-0.2-0.1-0.3-0.2-0.5-0.3c-1-0.7-2.2-1.2-3.4-1.5c-1.6-0.4-3.1-0.3-4.3,0.9c-1.7,1.6-2.3,4.5-1.4,6.6
			c0.6,1.3,1.5,2.5,2.7,3.3c3.7,2.7,7.8,3.4,12,1.5c2.2-1,4.2-2.3,6.3-3.5c0.3-0.1,0.5-0.4,0.6-0.7
			C336,344.1,336.9,341.5,336.9,338.7z"/>
		<path class="st56" d="M314.3,239.7c-0.6-0.4-1-0.8-1.5-1.2c-1.7-1.4-3-2.9-3.4-5.1c-0.1-0.8-0.2-1.7,0-2.5
			c0.3-2.3,2.2-3.9,4.7-4.2c1.9-0.2,3.8,0,5.6,0.5c3.5,1,6.7,2.7,9.6,4.8c7.7,5.5,13.3,12.7,17.3,21.2c1.1,2.3,1.9,4.6,2.9,6.9
			c0.2,0.4,0.3,0.9,0.4,1.4c0.1,0.6-0.1,1-0.5,1.2c-0.4,0.2-0.9,0.1-1.3-0.4c-0.2-0.3-0.4-0.6-0.5-0.9c-1.4-3-3.6-5.5-5.9-7.9
			c-3.2-3.3-7.1-5.3-11.6-6.1c-2.5-0.5-4.9-0.2-7.3,0.6c-1.4,0.5-2.7,0.9-4.1,1.2c-1.7,0.3-3.4,0-5-0.6c-2.6-1.1-3.5-3.5-2.2-6
			c0.5-1,1.3-1.8,2.3-2.5C313.8,240.1,314.1,239.9,314.3,239.7z M342,250.6c0,0,0.1-0.1,0.1-0.1c-0.1-0.2-0.2-0.5-0.4-0.7
			c-1-1.6-2-3.2-3.2-4.7c-4-5.3-8.8-9.6-14.6-12.8c-2.2-1.2-4.5-2.1-6.9-2.5c-1.1-0.2-2.2-0.3-3.4,0.1c-1.1,0.3-1.6,1-1.7,2.1
			c-0.1,0.8,0,1.6,0.5,2.3c0.5,0.7,1.1,1.5,1.8,2.1c1.3,1.2,2.8,1.9,4.5,2.5c0.9,0.3,1.3,0.9,1.2,1.6c-0.1,0.7-0.7,1.2-1.6,1.2
			c-0.6,0-1.2,0.1-1.8,0.2c-1.5,0.3-2.6,1.1-3.1,2.7c-0.2,0.7,0,1.2,0.5,1.6c0.3,0.2,0.6,0.4,0.9,0.5c1.5,0.5,3.1,0.6,4.6,0
			c0.9-0.3,1.8-0.7,2.7-1c2-0.7,4-1.1,6-1c4.9,0.3,9.2,2.1,13,5.2C341.5,250.1,341.7,250.4,342,250.6z"/>
		<path class="st56" d="M228.9,336.2c0.2-0.9,0.3-1.7,0.5-2.5c0.2-0.6,0.4-1.1,0.7-1.6c1-1.5,2.7-2,4.4-1.4c1.3,0.5,2.1,1.3,2.8,2.4
			c1,1.6,1.8,3.4,2.3,5.3c0.5,1.8,1,3.6,1.4,5.5c1.4,5.2,4,9.8,7.5,13.8c2,2.3,4.5,4,7.2,5.4c0.8,0.4,1.5,0.8,2.3,1.2
			c0.2,0.1,0.5,0.2,0.6,0.4c0.2,0.3,0.5,0.6,0.5,0.9c0,0.4-0.4,0.6-0.8,0.7c-0.4,0.1-0.9,0.1-1.3,0.1c-4.2,0-8.2-0.9-12.2-2.3
			c-7.5-2.6-13.8-6.9-18.8-13.1c-2-2.4-3.3-5.2-4-8.3c-0.2-1.1-0.3-2.2-0.1-3.4c0.5-3,3.4-4.6,6.2-3.4
			C228.4,336.1,228.7,336.2,228.9,336.2z M252.2,363.5c0,0,0-0.1,0.1-0.1c-0.3-0.2-0.5-0.4-0.8-0.6c-1.9-1.2-3.5-2.6-5-4.3
			c-2.7-3.1-4.8-6.6-6.4-10.4c-1.1-2.7-1.7-5.6-2.4-8.4c-0.5-1.8-1-3.6-2-5.1c-0.3-0.5-0.7-1-1.2-1.4c-1.1-0.8-2.1-0.5-2.6,0.7
			c-0.4,0.9-0.5,1.8-0.4,2.8c0.1,1.1,0.4,2.1,0.9,3.1c0.4,0.6,0.2,1.2-0.3,1.5c-0.5,0.3-1.1,0.3-1.6-0.3c-0.2-0.2-0.4-0.5-0.6-0.7
			c-0.8-0.9-1.5-1.8-2.7-2.2c-1.2-0.5-2.3,0.2-2.5,1.5c-0.1,0.3-0.1,0.7-0.1,1c0,1.3,0.3,2.4,0.8,3.6c1.3,3.5,3.6,6.4,6.3,8.9
			c5.6,5,12.1,8.4,19.4,10C251.5,363.4,251.9,363.4,252.2,363.5z"/>
		<path class="st56" d="M346.8,359.7c0,0.9,0,1.8,0,2.7c-0.1,0.8-0.4,1.6-0.9,2.2c-1.2,1.5-3,1.8-4.7,0.7c-0.9-0.6-1.5-1.5-2-2.4
			c-0.8-1.5-1.3-3.2-1.6-4.9c-0.4-2.1-0.4-4.2-0.2-6.4c0.1-0.9,0.4-1.3,1.2-1.4c2.5-0.3,4.9-0.5,7.4,0c1.8,0.3,3.4,1,4.8,2.1
			c0.8,0.6,1.4,1.4,1.8,2.3c1,2.5-0.7,5.1-3.4,5.2C348.5,360,347.7,359.8,346.8,359.7z M339.2,352.8c0.1,1.2,0.2,2.4,0.4,3.6
			c0.2,1.9,0.7,3.7,1.6,5.4c0.3,0.6,0.7,1.1,1.2,1.5c0.7,0.6,1.3,0.5,1.8-0.3c0.3-0.4,0.5-0.9,0.5-1.4c0.1-0.7,0-1.4-0.1-2
			c0-0.4-0.2-0.8-0.3-1.2c-0.2-1.2,0.6-2,1.8-1.6c0.4,0.1,0.7,0.3,1,0.4c0.5,0.2,1.1,0.4,1.7,0.5c0.7,0.1,1.2-0.1,1.6-0.6
			c0.4-0.6,0.3-1.2-0.1-1.7c-0.3-0.4-0.7-0.8-1.1-1.1c-1-0.7-2.1-1.2-3.4-1.5c-2.1-0.4-4.3-0.3-6.4-0.1
			C339.4,352.7,339.4,352.7,339.2,352.8z"/>
		<path class="st56" d="M310.4,327.6c0-0.9-0.2-1.7-0.1-2.4c0.2-1.7,1.7-2.6,3.4-2.1c1,0.3,1.7,0.8,2.2,1.7c0.3,0.6,0.6,1.2,0.8,1.9
			c0.3,1.5,0.5,3,0.3,4.6c-0.1,0.9-0.6,1.4-1.4,1.8c-1,0.5-2.1,0.6-3.2,0.6c-1.3-0.1-2.6-0.4-3.9-1c-1.1-0.5-1.8-1.5-1.7-2.5
			c0.1-1.1,0.9-1.9,2.1-2.3C309.4,327.7,310,327.7,310.4,327.6z M309.2,330.3c1.2,1,4.1,1.4,5.3,0.8c0.2-0.1,0.4-0.4,0.4-0.6
			c0.1-1.5,0-3-0.7-4.3c-0.2-0.3-0.5-0.7-0.8-0.8c-0.5-0.3-0.9-0.1-0.9,0.5c0,0.5,0.1,0.9,0.3,1.4c0.1,0.4,0.4,0.8,0.6,1.2
			c0.3,0.5,0.3,0.9,0,1.4c-0.3,0.4-0.8,0.5-1.3,0.4c-0.3-0.1-0.6-0.1-0.9-0.2C310.4,329.9,309.8,329.8,309.2,330.3z"/>
	</g>
</g>
</svg>
